<svg width="15" height="17" viewBox="0 0 15 17" fill="none" xmlns="http://www.w3.org/2000/svg">
<path d="M14.0847 5.8C12.8934 6.5 12.1577 7.7 12.1577 9.03333C12.1577 10.5333 13.1036 11.9 14.5401 12.4667C14.2598 13.3333 13.8394 14.1333 13.3139 14.8667C12.5431 15.9 11.7372 16.9667 10.546 16.9667C9.35473 16.9667 9.00437 16.3 7.60291 16.3C6.23649 16.3 5.74598 17 4.62481 17C3.50365 17 2.73284 16.0333 1.85693 14.8333C0.700729 13.1667 0.0350365 11.2333 0 9.2C0 5.9 2.24233 4.13333 4.48467 4.13333C5.67591 4.13333 6.65693 4.86667 7.39269 4.86667C8.09342 4.86667 9.21459 4.1 10.546 4.1C11.9474 4.06667 13.2788 4.7 14.0847 5.8ZM9.91532 2.7C10.5109 2.03333 10.8263 1.2 10.8613 0.333333C10.8613 0.233333 10.8613 0.1 10.8263 0C9.81021 0.1 8.86422 0.566667 8.19853 1.3C7.60291 1.93333 7.25255 2.73333 7.21751 3.6C7.21751 3.7 7.21751 3.8 7.25255 3.9C7.32262 3.9 7.42773 3.93333 7.4978 3.93333C8.44379 3.86667 9.3197 3.4 9.91532 2.7Z" fill="black" style="fill:black;fill-opacity:1;"/>
</svg>
