<svg width="36" height="37" viewBox="0 0 36 37" fill="none" xmlns="http://www.w3.org/2000/svg">
<g clip-path="url(#clip0_493_1453)">
<g filter="url(#filter0_d_493_1453)">
<path d="M16.7424 2.34766L5.10933 6.04069L3.81677 8.81046V16.3812L8.61771 28.3835L17.8503 35.4003L25.421 30.23L31.3299 19.3356L31.8838 7.33325L30.5913 5.48673L16.7424 2.34766Z" fill="#004AAD" fill-opacity="0.35" style="fill:#004AAD;fill:color(display-p3 0.0000 0.2902 0.6784);fill-opacity:0.35;" shape-rendering="crispEdges"/>
</g>
<mask id="path-2-inside-1_493_1453" fill="white">
<path d="M12.1041 4.53744C9.99379 5.11903 7.89783 5.75144 5.81803 6.43411C5.62812 6.49563 5.4593 6.60925 5.33081 6.76203C5.20232 6.91481 5.11932 7.1006 5.09127 7.29825C3.86374 16.5091 6.6999 23.2294 10.0833 27.6565C11.5158 29.5496 13.2239 31.2174 15.1507 32.6043C15.9174 33.1449 16.5954 33.5349 17.1294 33.7852C17.3953 33.9115 17.6124 33.9957 17.7786 34.0467C17.8513 34.0722 17.9262 34.0907 18.0024 34.1021C18.0777 34.0899 18.1518 34.0713 18.224 34.0467C18.3924 33.9957 18.6095 33.9115 18.8754 33.7852C19.4072 33.5349 20.0874 33.1427 20.8541 32.6043C22.7808 31.2174 24.4889 29.5496 25.9215 27.6565C29.3049 23.2317 32.1411 16.5091 30.9135 7.29825C30.8857 7.10051 30.8028 6.9146 30.6743 6.76177C30.5458 6.60895 30.3768 6.4954 30.1868 6.43411C28.7443 5.96216 26.3092 5.1933 23.9007 4.53965C21.4412 3.87271 19.179 3.3786 18.0024 3.3786C16.8281 3.3786 14.5636 3.87271 12.1041 4.53965V4.53744ZM11.5147 2.25522C13.9188 1.60158 16.4735 1.0144 18.0024 1.0144C19.5313 1.0144 22.086 1.60158 24.4901 2.25522C26.9496 2.91994 29.429 3.70653 30.8869 4.18292C31.4965 4.38422 32.0369 4.75339 32.4461 5.24803C32.8553 5.74266 33.1167 6.34269 33.2002 6.97918C34.5208 16.8991 31.4564 24.2509 27.7384 29.1145C26.1617 31.195 24.2818 33.0271 22.1614 34.5497C21.4281 35.0765 20.6513 35.5398 19.8393 35.9345C19.2188 36.227 18.5519 36.4663 18.0024 36.4663C17.4529 36.4663 16.7882 36.227 16.1656 35.9345C15.3535 35.5398 14.5767 35.0765 13.8435 34.5497C11.723 33.0271 9.84311 31.195 8.26643 29.1145C4.54841 24.2509 1.48404 16.8991 2.80462 6.97918C2.88812 6.34269 3.14948 5.74266 3.55867 5.24803C3.96786 4.75339 4.50829 4.38422 5.11786 4.18292C7.23431 3.48897 9.36722 2.84621 11.5147 2.25522Z"/>
</mask>
<path d="M12.1041 4.53744C9.99379 5.11903 7.89783 5.75144 5.81803 6.43411C5.62812 6.49563 5.4593 6.60925 5.33081 6.76203C5.20232 6.91481 5.11932 7.1006 5.09127 7.29825C3.86374 16.5091 6.6999 23.2294 10.0833 27.6565C11.5158 29.5496 13.2239 31.2174 15.1507 32.6043C15.9174 33.1449 16.5954 33.5349 17.1294 33.7852C17.3953 33.9115 17.6124 33.9957 17.7786 34.0467C17.8513 34.0722 17.9262 34.0907 18.0024 34.1021C18.0777 34.0899 18.1518 34.0713 18.224 34.0467C18.3924 33.9957 18.6095 33.9115 18.8754 33.7852C19.4072 33.5349 20.0874 33.1427 20.8541 32.6043C22.7808 31.2174 24.4889 29.5496 25.9215 27.6565C29.3049 23.2317 32.1411 16.5091 30.9135 7.29825C30.8857 7.10051 30.8028 6.9146 30.6743 6.76177C30.5458 6.60895 30.3768 6.4954 30.1868 6.43411C28.7443 5.96216 26.3092 5.1933 23.9007 4.53965C21.4412 3.87271 19.179 3.3786 18.0024 3.3786C16.8281 3.3786 14.5636 3.87271 12.1041 4.53965V4.53744ZM11.5147 2.25522C13.9188 1.60158 16.4735 1.0144 18.0024 1.0144C19.5313 1.0144 22.086 1.60158 24.4901 2.25522C26.9496 2.91994 29.429 3.70653 30.8869 4.18292C31.4965 4.38422 32.0369 4.75339 32.4461 5.24803C32.8553 5.74266 33.1167 6.34269 33.2002 6.97918C34.5208 16.8991 31.4564 24.2509 27.7384 29.1145C26.1617 31.195 24.2818 33.0271 22.1614 34.5497C21.4281 35.0765 20.6513 35.5398 19.8393 35.9345C19.2188 36.227 18.5519 36.4663 18.0024 36.4663C17.4529 36.4663 16.7882 36.227 16.1656 35.9345C15.3535 35.5398 14.5767 35.0765 13.8435 34.5497C11.723 33.0271 9.84311 31.195 8.26643 29.1145C4.54841 24.2509 1.48404 16.8991 2.80462 6.97918C2.88812 6.34269 3.14948 5.74266 3.55867 5.24803C3.96786 4.75339 4.50829 4.38422 5.11786 4.18292C7.23431 3.48897 9.36722 2.84621 11.5147 2.25522Z" fill="#004AAD" style="fill:#004AAD;fill:color(display-p3 0.0000 0.2902 0.6784);fill-opacity:1;"/>
<path d="M12.1041 4.53744H17.9069V-3.08098L10.5623 -1.05682L12.1041 4.53744ZM5.81803 6.43411L7.60626 11.9545L7.61701 11.951L7.62775 11.9475L5.81803 6.43411ZM5.09127 7.29825L-0.653979 6.48283L-0.657444 6.50724L-0.660702 6.53169L5.09127 7.29825ZM10.0833 27.6565L14.7107 24.155L14.7023 24.1439L14.6938 24.1329L10.0833 27.6565ZM15.1507 32.6043L11.7608 37.3139L11.7836 37.3303L11.8065 37.3465L15.1507 32.6043ZM17.1294 33.7852L19.6191 28.5437L19.606 28.5375L19.5929 28.5313L17.1294 33.7852ZM17.7786 34.0467L19.6994 28.571L19.5904 28.5328L19.4799 28.4989L17.7786 34.0467ZM18.0024 34.1021L17.1472 39.8416L18.041 39.9747L18.9331 39.8298L18.0024 34.1021ZM18.224 34.0467L16.5431 28.4926L16.4459 28.5221L16.3498 28.5549L18.224 34.0467ZM18.8754 33.7852L16.4035 28.5352L16.3946 28.5394L16.3857 28.5437L18.8754 33.7852ZM20.8541 32.6043L24.1891 37.3529L24.2167 37.3336L24.2441 37.3139L20.8541 32.6043ZM25.9215 27.6565L21.3118 24.1317L21.303 24.1433L21.2942 24.1549L25.9215 27.6565ZM30.9135 7.29825L36.6655 6.53169L36.6628 6.51099L36.6598 6.49031L30.9135 7.29825ZM30.1868 6.43411L28.3823 11.9492L28.394 11.9531L28.4057 11.9569L30.1868 6.43411ZM23.9007 4.53965L25.4206 -1.0606L25.4194 -1.06091L23.9007 4.53965ZM12.1041 4.53965H6.30127V12.1256L13.6228 10.1402L12.1041 4.53965ZM24.4901 2.25522L22.9676 7.85477L22.9761 7.85705L24.4901 2.25522ZM30.8869 4.18292L32.7066 -1.32722L32.6979 -1.33009L32.6892 -1.33293L30.8869 4.18292ZM33.2002 6.97918L27.4467 7.73402L27.4481 7.74493L33.2002 6.97918ZM27.7384 29.1145L23.1283 25.5902L23.1209 25.6L23.1135 25.6097L27.7384 29.1145ZM22.1614 34.5497L18.7769 29.8361L18.7752 29.8373L22.1614 34.5497ZM19.8393 35.9345L22.3137 41.1833L22.3449 41.1686L22.3759 41.1535L19.8393 35.9345ZM16.1656 35.9345L13.6289 41.1536L13.6635 41.1704L13.6983 41.1867L16.1656 35.9345ZM13.8435 34.5497L17.2297 29.8373L17.2281 29.8362L13.8435 34.5497ZM8.26643 29.1145L12.8912 25.6096L12.8839 25.5999L12.8765 25.5902L8.26643 29.1145ZM2.80462 6.97918L8.55671 7.74493L8.55814 7.73402L2.80462 6.97918ZM5.11786 4.18292L3.30991 -1.33109L3.2982 -1.32722L5.11786 4.18292ZM10.5623 -1.05682C8.36207 -0.450435 6.17677 0.208932 4.00831 0.920702L7.62775 11.9475C9.61889 11.294 11.6255 10.6885 13.6459 10.1317L10.5623 -1.05682ZM4.0298 0.913695C2.80588 1.31016 1.71789 2.04241 0.889803 3.02703L9.77181 10.497C9.20071 11.1761 8.45036 11.6811 7.60626 11.9545L4.0298 0.913695ZM0.889803 3.02703C0.0617125 4.01165 -0.473191 5.20905 -0.653979 6.48283L10.8365 8.11368C10.7118 8.99216 10.3429 9.81797 9.77181 10.497L0.889803 3.02703ZM-0.660702 6.53169C-2.11448 17.4402 1.2668 25.6768 5.47284 31.1801L14.6938 24.1329C12.133 20.7821 9.84197 15.5779 10.8432 8.06481L-0.660702 6.53169ZM5.45599 31.158C7.23831 33.5134 9.3635 35.5884 11.7608 37.3139L18.5407 27.8946C17.0844 26.8464 15.7934 25.5858 14.7107 24.155L5.45599 31.158ZM11.8065 37.3465C12.8002 38.0473 13.7722 38.6201 14.6659 39.0392L19.5929 28.5313C19.4186 28.4496 19.0346 28.2425 18.495 27.862L11.8065 37.3465ZM14.6397 39.0268C15.0927 39.242 15.5778 39.4413 16.0773 39.5945L19.4799 28.4989C19.5714 28.5269 19.6265 28.5484 19.6418 28.5545C19.6591 28.5615 19.6518 28.5592 19.6191 28.5437L14.6397 39.0268ZM15.8578 39.5224C16.2765 39.6693 16.7083 39.7762 17.1472 39.8416L18.8576 28.3626C19.1442 28.4053 19.426 28.4751 19.6994 28.571L15.8578 39.5224ZM18.9331 39.8298C19.3289 39.7655 19.7186 39.6681 20.0982 39.5385L16.3498 28.5549C16.585 28.4746 16.8265 28.4142 17.0717 28.3744L18.9331 39.8298ZM19.9048 39.6008C20.4201 39.4448 20.9133 39.2415 21.3651 39.0268L16.3857 28.5437C16.3529 28.5593 16.3472 28.5607 16.3675 28.5527C16.3858 28.5454 16.4457 28.5221 16.5431 28.4926L19.9048 39.6008ZM21.3473 39.0353C22.235 38.6173 23.2036 38.0451 24.1891 37.3529L17.519 27.8556C16.9712 28.2403 16.5794 28.4524 16.4035 28.5352L21.3473 39.0353ZM24.2441 37.3139C26.6413 35.5883 28.7665 33.5134 30.5488 31.1581L21.2942 24.1549C20.2114 25.5858 18.9204 26.8464 17.4641 27.8946L24.2441 37.3139ZM30.5311 31.1813C34.7385 25.6789 38.1192 17.4396 36.6655 6.53169L25.1616 8.06481C26.1629 15.5786 23.8714 20.7844 21.3118 24.1317L30.5311 31.1813ZM36.6598 6.49031C36.4804 5.21372 35.9451 4.01342 35.1153 3.02677L26.2333 10.4968C25.6606 9.81577 25.2911 8.9873 25.1672 8.1062L36.6598 6.49031ZM35.1153 3.02677C34.2855 2.04013 33.1947 1.30704 31.9678 0.911372L28.4057 11.9569C27.5589 11.6838 26.806 11.1778 26.2333 10.4968L35.1153 3.02677ZM31.9913 0.918989C30.502 0.431724 27.963 -0.370615 25.4206 -1.0606L22.3809 10.1399C24.6555 10.7572 26.9866 11.4926 28.3823 11.9492L31.9913 0.918989ZM25.4194 -1.06091C23.1042 -1.68874 20.0857 -2.42422 18.0024 -2.42422V9.18143C17.976 9.18143 18.3581 9.20156 19.317 9.39605C20.173 9.56966 21.2238 9.82615 22.382 10.1402L25.4194 -1.06091ZM18.0024 -2.42422C15.9215 -2.42422 12.9012 -1.6889 10.5854 -1.06091L13.6228 10.1402C14.7805 9.82628 15.8319 9.56977 16.6883 9.39611C17.6483 9.20147 18.0301 9.18143 18.0024 9.18143V-2.42422ZM17.9069 4.53965V4.53744H6.30127V4.53965H17.9069ZM13.0372 7.85476C15.5728 7.16534 17.3782 6.81723 18.0024 6.81723V-4.78842C15.5689 -4.78842 12.2647 -3.96219 9.99225 -3.34432L13.0372 7.85476ZM18.0024 6.81723C18.6266 6.81723 20.432 7.16534 22.9676 7.85476L26.0126 -3.34432C23.7401 -3.96219 20.4359 -4.78842 18.0024 -4.78842V6.81723ZM22.9761 7.85705C25.2942 8.48357 27.6648 9.23481 29.0847 9.69876L32.6892 -1.33293C31.1932 -1.82175 28.605 -2.64368 26.0041 -3.34661L22.9761 7.85705ZM29.0673 9.69305C28.6402 9.55203 28.2616 9.29339 27.975 8.94685L36.9173 1.5492C35.8123 0.213396 34.3528 -0.783586 32.7066 -1.32722L29.0673 9.69305ZM27.975 8.94685C27.6883 8.6003 27.5052 8.17993 27.4467 7.73402L38.9537 6.22435C38.7282 4.50545 38.0224 2.88502 36.9173 1.5492L27.975 8.94685ZM27.4481 7.74493C28.5428 15.9677 26.0232 21.8034 23.1283 25.5902L32.3484 32.6387C36.8896 26.6984 40.4988 17.8304 38.9523 6.21344L27.4481 7.74493ZM23.1135 25.6097C21.8875 27.2275 20.4257 28.6522 18.7769 29.8361L25.5458 39.2633C28.1379 37.4021 30.436 35.1625 32.3633 32.6192L23.1135 25.6097ZM18.7752 29.8373C18.3102 30.1714 17.8175 30.4652 17.3026 30.7155L22.3759 41.1535C23.485 40.6144 24.5461 39.9817 25.5475 39.2621L18.7752 29.8373ZM17.3648 30.6857C17.2109 30.7583 17.1552 30.7739 17.1863 30.7643C17.2072 30.7579 17.2817 30.7357 17.4025 30.7139C17.5204 30.6926 17.7269 30.6635 18.0024 30.6635V42.2691C19.9201 42.2691 21.5803 41.5291 22.3137 41.1833L17.3648 30.6857ZM18.0024 30.6635C18.2782 30.6635 18.4851 30.6927 18.6038 30.7141C18.7252 30.7361 18.8 30.7583 18.8207 30.7647C18.851 30.7741 18.7934 30.7578 18.6328 30.6823L13.6983 41.1867C14.4223 41.5268 16.0831 42.2691 18.0024 42.2691V30.6635ZM18.7022 30.7155C18.1872 30.4652 17.6946 30.1714 17.2297 29.8373L10.4572 39.262C11.4587 39.9817 12.5198 40.6145 13.6289 41.1536L18.7022 30.7155ZM17.2281 29.8362C15.5792 28.6522 14.1173 27.2274 12.8912 25.6096L3.64163 32.6193C5.56893 35.1625 7.86692 37.402 10.4588 39.2632L17.2281 29.8362ZM12.8765 25.5902C9.98161 21.8034 7.46204 15.9677 8.5567 7.74493L-2.94746 6.21344C-4.49396 17.8304 -0.884794 26.6984 3.65637 32.6387L12.8765 25.5902ZM8.55814 7.73402C8.49964 8.17994 8.31653 8.60032 8.02986 8.94685L-0.912508 1.5492C-2.01756 2.88501 -2.72339 4.50544 -2.9489 6.22435L8.55814 7.73402ZM8.02986 8.94685C7.74318 9.29338 7.36457 9.55202 6.93751 9.69305L3.2982 -1.32722C1.652 -0.783582 0.192544 0.213404 -0.912508 1.5492L8.02986 8.94685ZM6.9258 9.69691C8.95351 9.03206 10.997 8.41626 13.0544 7.85004L9.975 -3.3396C7.73746 -2.72383 5.51512 -2.05412 3.30991 -1.33107L6.9258 9.69691Z" fill="#004AAD" style="fill:#004AAD;fill:color(display-p3 0.0000 0.2902 0.6784);fill-opacity:1;" mask="url(#path-2-inside-1_493_1453)"/>
<path d="M12.6564 20.3269L15.1975 22.868L22.8208 15.2446" stroke="#004AAD" style="stroke:#004AAD;stroke:color(display-p3 0.0000 0.2902 0.6784);stroke-opacity:1;" stroke-width="2.03289" stroke-linecap="round" stroke-linejoin="round"/>
</g>
<defs>
<filter id="filter0_d_493_1453" x="0.12374" y="0.131837" width="35.4531" height="40.4387" filterUnits="userSpaceOnUse" color-interpolation-filters="sRGB">
<feFlood flood-opacity="0" result="BackgroundImageFix"/>
<feColorMatrix in="SourceAlpha" type="matrix" values="0 0 0 0 0 0 0 0 0 0 0 0 0 0 0 0 0 0 127 0" result="hardAlpha"/>
<feOffset dy="1.47721"/>
<feGaussianBlur stdDeviation="1.84652"/>
<feComposite in2="hardAlpha" operator="out"/>
<feColorMatrix type="matrix" values="0 0 0 0 0 0 0 0 0 0 0 0 0 0 0 0 0 0 0.25 0"/>
<feBlend mode="normal" in2="BackgroundImageFix" result="effect1_dropShadow_493_1453"/>
<feBlend mode="normal" in="SourceGraphic" in2="effect1_dropShadow_493_1453" result="shape"/>
</filter>
<clipPath id="clip0_493_1453">
<rect width="35.4519" height="35.4519" fill="white" style="fill:white;fill-opacity:1;" transform="translate(0.124512 0.870483)"/>
</clipPath>
</defs>
</svg>
