<svg width="32" height="36" viewBox="0 0 32 36" fill="none" xmlns="http://www.w3.org/2000/svg">
<mask id="path-1-inside-1_493_1903" fill="white">
<path d="M10.2514 3.53744C8.14113 4.11903 6.04517 4.75144 3.96537 5.43411C3.77546 5.49563 3.60664 5.60925 3.47815 5.76203C3.34966 5.91481 3.26666 6.1006 3.23861 6.29825C2.01108 15.5091 4.84723 22.2294 8.23067 26.6565C9.66319 28.5496 11.3713 30.2174 13.2981 31.6043C14.0647 32.1449 14.7427 32.5349 15.2767 32.7852C15.5426 32.9115 15.7598 32.9957 15.926 33.0467C15.9986 33.0722 16.0736 33.0907 16.1497 33.1021C16.225 33.0899 16.2991 33.0713 16.3713 33.0467C16.5397 32.9957 16.7569 32.9115 17.0227 32.7852C17.5545 32.5349 18.2348 32.1427 19.0014 31.6043C20.9282 30.2174 22.6363 28.5496 24.0688 26.6565C27.4522 22.2317 30.2884 15.5091 29.0609 6.29825C29.0331 6.10051 28.9502 5.9146 28.8216 5.76177C28.6931 5.60895 28.5242 5.4954 28.3341 5.43411C26.8917 4.96216 24.4566 4.1933 22.048 3.53965C19.5886 2.87271 17.3263 2.3786 16.1497 2.3786C14.9754 2.3786 12.7109 2.87271 10.2514 3.53965V3.53744ZM9.66204 1.25522C12.0661 0.601576 14.6209 0.0144043 16.1497 0.0144043C17.6786 0.0144043 20.2334 0.601576 22.6374 1.25522C25.0969 1.91994 27.5763 2.70653 29.0343 3.18292C29.6439 3.38422 30.1843 3.75339 30.5935 4.24803C31.0027 4.74266 31.264 5.34269 31.3475 5.97918C32.6681 15.8991 29.6037 23.2509 25.8857 28.1145C24.3091 30.195 22.4291 32.0271 20.3087 33.5497C19.5755 34.0765 18.7986 34.5398 17.9866 34.9345C17.3662 35.227 16.6992 35.4663 16.1497 35.4663C15.6002 35.4663 14.9355 35.227 14.3129 34.9345C13.5009 34.5398 12.724 34.0765 11.9908 33.5497C9.87039 32.0271 7.99045 30.195 6.41376 28.1145C2.69575 23.2509 -0.368625 15.8991 0.951958 5.97918C1.03546 5.34269 1.29682 4.74266 1.70601 4.24803C2.1152 3.75339 2.65562 3.38422 3.26519 3.18292C5.38165 2.48897 7.51456 1.84621 9.66204 1.25522Z"/>
</mask>
<path d="M10.2514 3.53744C8.14113 4.11903 6.04517 4.75144 3.96537 5.43411C3.77546 5.49563 3.60664 5.60925 3.47815 5.76203C3.34966 5.91481 3.26666 6.1006 3.23861 6.29825C2.01108 15.5091 4.84723 22.2294 8.23067 26.6565C9.66319 28.5496 11.3713 30.2174 13.2981 31.6043C14.0647 32.1449 14.7427 32.5349 15.2767 32.7852C15.5426 32.9115 15.7598 32.9957 15.926 33.0467C15.9986 33.0722 16.0736 33.0907 16.1497 33.1021C16.225 33.0899 16.2991 33.0713 16.3713 33.0467C16.5397 32.9957 16.7569 32.9115 17.0227 32.7852C17.5545 32.5349 18.2348 32.1427 19.0014 31.6043C20.9282 30.2174 22.6363 28.5496 24.0688 26.6565C27.4522 22.2317 30.2884 15.5091 29.0609 6.29825C29.0331 6.10051 28.9502 5.9146 28.8216 5.76177C28.6931 5.60895 28.5242 5.4954 28.3341 5.43411C26.8917 4.96216 24.4566 4.1933 22.048 3.53965C19.5886 2.87271 17.3263 2.3786 16.1497 2.3786C14.9754 2.3786 12.7109 2.87271 10.2514 3.53965V3.53744ZM9.66204 1.25522C12.0661 0.601576 14.6209 0.0144043 16.1497 0.0144043C17.6786 0.0144043 20.2334 0.601576 22.6374 1.25522C25.0969 1.91994 27.5763 2.70653 29.0343 3.18292C29.6439 3.38422 30.1843 3.75339 30.5935 4.24803C31.0027 4.74266 31.264 5.34269 31.3475 5.97918C32.6681 15.8991 29.6037 23.2509 25.8857 28.1145C24.3091 30.195 22.4291 32.0271 20.3087 33.5497C19.5755 34.0765 18.7986 34.5398 17.9866 34.9345C17.3662 35.227 16.6992 35.4663 16.1497 35.4663C15.6002 35.4663 14.9355 35.227 14.3129 34.9345C13.5009 34.5398 12.724 34.0765 11.9908 33.5497C9.87039 32.0271 7.99045 30.195 6.41376 28.1145C2.69575 23.2509 -0.368625 15.8991 0.951958 5.97918C1.03546 5.34269 1.29682 4.74266 1.70601 4.24803C2.1152 3.75339 2.65562 3.38422 3.26519 3.18292C5.38165 2.48897 7.51456 1.84621 9.66204 1.25522Z" fill="#00752F" style="fill:#00752F;fill:color(display-p3 0.0000 0.4583 0.1833);fill-opacity:1;"/>
<path d="M10.2514 3.53744H16.0543V-4.08098L8.70966 -2.05682L10.2514 3.53744ZM3.96537 5.43411L5.75359 10.9545L5.76435 10.951L5.77508 10.9475L3.96537 5.43411ZM3.23861 6.29825L-2.50664 5.48283L-2.51011 5.50724L-2.51336 5.53169L3.23861 6.29825ZM8.23067 26.6565L12.858 23.155L12.8496 23.1439L12.8412 23.1329L8.23067 26.6565ZM13.2981 31.6043L9.90813 36.3139L9.93091 36.3303L9.95384 36.3465L13.2981 31.6043ZM15.2767 32.7852L17.7665 27.5437L17.7534 27.5375L17.7402 27.5313L15.2767 32.7852ZM15.926 33.0467L17.8468 27.571L17.7377 27.5328L17.6273 27.4989L15.926 33.0467ZM16.1497 33.1021L15.2945 38.8416L16.1884 38.9747L17.0804 38.8298L16.1497 33.1021ZM16.3713 33.0467L14.6905 27.4926L14.5932 27.5221L14.4971 27.5549L16.3713 33.0467ZM17.0227 32.7852L14.5509 27.5352L14.5419 27.5394L14.533 27.5437L17.0227 32.7852ZM19.0014 31.6043L22.3365 36.3529L22.3641 36.3336L22.3914 36.3139L19.0014 31.6043ZM24.0688 26.6565L19.4592 23.1317L19.4503 23.1433L19.4415 23.1549L24.0688 26.6565ZM29.0609 6.29825L34.8128 5.53169L34.8101 5.51099L34.8072 5.49031L29.0609 6.29825ZM28.3341 5.43411L26.5296 10.9492L26.5413 10.9531L26.5531 10.9569L28.3341 5.43411ZM22.048 3.53965L23.5679 -2.0606L23.5668 -2.06091L22.048 3.53965ZM10.2514 3.53965H4.44861V11.1256L11.7701 9.14021L10.2514 3.53965ZM22.6374 1.25522L21.115 6.85477L21.1234 6.85705L22.6374 1.25522ZM29.0343 3.18292L30.8539 -2.32722L30.8453 -2.33009L30.8366 -2.33293L29.0343 3.18292ZM31.3475 5.97918L25.594 6.73402L25.5954 6.74493L31.3475 5.97918ZM25.8857 28.1145L21.2757 24.5902L21.2682 24.6L21.2608 24.6097L25.8857 28.1145ZM20.3087 33.5497L16.9242 28.8361L16.9225 28.8373L20.3087 33.5497ZM17.9866 34.9345L20.461 40.1833L20.4922 40.1686L20.5233 40.1535L17.9866 34.9345ZM14.3129 34.9345L11.7763 40.1536L11.8109 40.1704L11.8457 40.1867L14.3129 34.9345ZM11.9908 33.5497L15.377 28.8373L15.3754 28.8362L11.9908 33.5497ZM6.41376 28.1145L11.0386 24.6096L11.0312 24.5999L11.0238 24.5902L6.41376 28.1145ZM0.951958 5.97918L6.70405 6.74493L6.70548 6.73402L0.951958 5.97918ZM3.26519 3.18292L1.45725 -2.33109L1.44554 -2.32722L3.26519 3.18292ZM8.70966 -2.05682C6.50941 -1.45043 4.32411 -0.791068 2.15565 -0.0792979L5.77508 10.9475C7.76623 10.294 9.77286 9.6885 11.7932 9.13169L8.70966 -2.05682ZM2.17714 -0.0863051C0.953214 0.310161 -0.134766 1.04241 -0.962858 2.02703L7.91915 9.49703C7.34804 10.1761 6.5977 10.6811 5.75359 10.9545L2.17714 -0.0863051ZM-0.962858 2.02703C-1.79095 3.01165 -2.32585 4.20905 -2.50664 5.48283L8.98385 7.11368C8.85917 7.99216 8.49026 8.81797 7.91915 9.49703L-0.962858 2.02703ZM-2.51336 5.53169C-3.96714 16.4402 -0.585859 24.6768 3.62017 30.1801L12.8412 23.1329C10.2803 19.7821 7.98931 14.5779 8.99057 7.06481L-2.51336 5.53169ZM3.60333 30.158C5.38565 32.5134 7.51084 34.5884 9.90813 36.3139L16.688 26.8946C15.2317 25.8464 13.9407 24.5858 12.858 23.155L3.60333 30.158ZM9.95384 36.3465C10.9476 37.0473 11.9195 37.6201 12.8133 38.0392L17.7402 27.5313C17.566 27.4496 17.1819 27.2425 16.6423 26.862L9.95384 36.3465ZM12.787 38.0268C13.24 38.242 13.7251 38.4413 14.2246 38.5945L17.6273 27.4989C17.7187 27.5269 17.7738 27.5484 17.7891 27.5545C17.8065 27.5615 17.7991 27.5592 17.7665 27.5437L12.787 38.0268ZM14.0051 38.5224C14.4239 38.6693 14.8556 38.7762 15.2945 38.8416L17.0049 27.3626C17.2915 27.4053 17.5734 27.4751 17.8468 27.571L14.0051 38.5224ZM17.0804 38.8298C17.4762 38.7655 17.866 38.6681 18.2455 38.5385L14.4971 27.5549C14.7323 27.4746 14.9738 27.4142 15.2191 27.3744L17.0804 38.8298ZM18.0521 38.6008C18.5675 38.4448 19.0606 38.2415 19.5125 38.0268L14.533 27.5437C14.5002 27.5593 14.4946 27.5607 14.5148 27.5527C14.5331 27.5454 14.5931 27.5221 14.6905 27.4926L18.0521 38.6008ZM19.4946 38.0353C20.3823 37.6173 21.351 37.0451 22.3365 36.3529L15.6663 26.8556C15.1185 27.2403 14.7267 27.4524 14.5509 27.5352L19.4946 38.0353ZM22.3914 36.3139C24.7886 34.5883 26.9138 32.5134 28.6961 30.1581L19.4415 23.1549C18.3588 24.5858 17.0677 25.8464 15.6114 26.8946L22.3914 36.3139ZM28.6785 30.1813C32.8858 24.6789 36.2665 16.4396 34.8128 5.53169L23.3089 7.06481C24.3103 14.5786 22.0187 19.7844 19.4592 23.1317L28.6785 30.1813ZM34.8072 5.49031C34.6277 4.21372 34.0924 3.01342 33.2626 2.02677L24.3806 9.49677C23.8079 8.81577 23.4385 7.9873 23.3146 7.1062L34.8072 5.49031ZM33.2626 2.02677C32.4329 1.04013 31.3421 0.307042 30.1152 -0.0886281L26.5531 10.9569C25.7062 10.6838 24.9534 10.1778 24.3806 9.49677L33.2626 2.02677ZM30.1386 -0.0810112C28.6494 -0.568276 26.1103 -1.37062 23.5679 -2.0606L20.5282 9.1399C22.8028 9.75721 25.134 10.4926 26.5296 10.9492L30.1386 -0.0810112ZM23.5668 -2.06091C21.2515 -2.68874 18.233 -3.42422 16.1497 -3.42422V8.18143C16.1233 8.18143 16.5054 8.20156 17.4643 8.39605C18.3203 8.56966 19.3712 8.82615 20.5293 9.14021L23.5668 -2.06091ZM16.1497 -3.42422C14.0689 -3.42422 11.0486 -2.6889 8.73272 -2.06091L11.7701 9.14021C12.9278 8.82628 13.9793 8.56977 14.8357 8.39611C15.7956 8.20147 16.1774 8.18143 16.1497 8.18143V-3.42422ZM16.0543 3.53965V3.53744H4.44861V3.53965H16.0543ZM11.1845 6.85476C13.7202 6.16534 15.5255 5.81723 16.1497 5.81723V-5.78842C13.7162 -5.78842 10.4121 -4.96219 8.13959 -4.34432L11.1845 6.85476ZM16.1497 5.81723C16.774 5.81723 18.5793 6.16534 21.115 6.85476L24.1599 -4.34432C21.8874 -4.96219 18.5832 -5.78842 16.1497 -5.78842V5.81723ZM21.1234 6.85705C23.4415 7.48357 25.8121 8.23481 27.232 8.69876L30.8366 -2.33293C29.3406 -2.82175 26.7523 -3.64368 24.1514 -4.34661L21.1234 6.85705ZM27.2146 8.69305C26.7876 8.55203 26.409 8.29339 26.1223 7.94685L35.0647 0.549205C33.9596 -0.786604 32.5001 -1.78359 30.8539 -2.32722L27.2146 8.69305ZM26.1223 7.94685C25.8356 7.6003 25.6525 7.17993 25.594 6.73402L37.101 5.22435C36.8755 3.50545 36.1697 1.88502 35.0647 0.549205L26.1223 7.94685ZM25.5954 6.74493C26.6901 14.9677 24.1705 20.8034 21.2757 24.5902L30.4958 31.6387C35.0369 25.6984 38.6461 16.8304 37.0996 5.21344L25.5954 6.74493ZM21.2608 24.6097C20.0349 26.2275 18.573 27.6522 16.9242 28.8361L23.6932 38.2633C26.2852 36.4021 28.5833 34.1625 30.5106 31.6192L21.2608 24.6097ZM16.9225 28.8373C16.4576 29.1714 15.9649 29.4652 15.4499 29.7155L20.5233 40.1535C21.6324 39.6144 22.6934 38.9817 23.6948 38.2621L16.9225 28.8373ZM15.5122 29.6857C15.3582 29.7583 15.3026 29.7739 15.3337 29.7643C15.3546 29.7579 15.429 29.7357 15.5498 29.7139C15.6677 29.6926 15.8742 29.6635 16.1497 29.6635V41.2691C18.0674 41.2691 19.7276 40.5291 20.461 40.1833L15.5122 29.6857ZM16.1497 29.6635C16.4255 29.6635 16.6325 29.6927 16.7511 29.7141C16.8725 29.7361 16.9473 29.7583 16.968 29.7647C16.9984 29.7741 16.9408 29.7578 16.7801 29.6823L11.8457 40.1867C12.5697 40.5268 14.2304 41.2691 16.1497 41.2691V29.6635ZM16.8495 29.7155C16.3346 29.4652 15.8419 29.1714 15.377 28.8373L8.60458 38.262C9.60605 38.9817 10.6671 39.6145 11.7763 40.1536L16.8495 29.7155ZM15.3754 28.8362C13.7265 27.6522 12.2646 26.2274 11.0386 24.6096L1.78897 31.6193C3.71627 34.1625 6.01426 36.402 8.60619 38.2632L15.3754 28.8362ZM11.0238 24.5902C8.12895 20.8034 5.60937 14.9677 6.70404 6.74493L-4.80012 5.21344C-6.34662 16.8304 -2.73746 25.6984 1.80371 31.6387L11.0238 24.5902ZM6.70548 6.73402C6.64697 7.17994 6.46387 7.60032 6.1772 7.94685L-2.76517 0.549205C-3.87022 1.88501 -4.57605 3.50544 -4.80156 5.22435L6.70548 6.73402ZM6.1772 7.94685C5.89052 8.29338 5.51191 8.55202 5.08485 8.69305L1.44554 -2.32722C-0.200663 -1.78358 -1.66012 -0.786596 -2.76517 0.549205L6.1772 7.94685ZM5.07314 8.69691C7.10085 8.03206 9.14432 7.41626 11.2018 6.85004L8.12234 -4.3396C5.8848 -3.72383 3.66246 -3.05412 1.45725 -2.33107L5.07314 8.69691Z" fill="#00752F" style="fill:#00752F;fill:color(display-p3 0.0000 0.4583 0.1833);fill-opacity:1;" mask="url(#path-1-inside-1_493_1903)"/>
<path d="M10.8037 19.3269L13.3448 21.868L20.9682 14.2446" stroke="#00752F" style="stroke:#00752F;stroke:color(display-p3 0.0000 0.4583 0.1833);stroke-opacity:1;" stroke-width="2.03289" stroke-linecap="round" stroke-linejoin="round"/>
</svg>
