<svg width="32" height="37" viewBox="0 0 32 37" fill="none" xmlns="http://www.w3.org/2000/svg">
<mask id="path-1-inside-1_493_1723" fill="white">
<path d="M10.2513 4.3868C8.14101 4.9684 6.04505 5.60081 3.96525 6.28348C3.77533 6.345 3.60652 6.45862 3.47803 6.61139C3.34953 6.76417 3.26654 6.94997 3.23848 7.14762C2.01096 16.3585 4.84711 23.0788 8.23055 27.5059C9.66306 29.399 11.3712 31.0667 13.298 32.4536C14.0646 32.9943 14.7426 33.3842 15.2766 33.6346C15.5425 33.7609 15.7596 33.8451 15.9258 33.8961C15.9985 33.9216 16.0734 33.9401 16.1496 33.9515C16.2249 33.9392 16.299 33.9207 16.3712 33.8961C16.5396 33.8451 16.7567 33.7609 17.0226 33.6346C17.5544 33.3842 18.2346 32.992 19.0013 32.4536C20.9281 31.0667 22.6362 29.399 24.0687 27.5059C27.4521 23.081 30.2883 16.3585 29.0608 7.14762C29.033 6.94988 28.95 6.76396 28.8215 6.61114C28.693 6.45832 28.524 6.34477 28.334 6.28348C26.8915 5.81152 24.4564 5.04266 22.0479 4.38902C19.5885 3.72208 17.3262 3.22797 16.1496 3.22797C14.9753 3.22797 12.7108 3.72208 10.2513 4.38902V4.3868ZM9.66192 2.10459C12.066 1.45094 14.6208 0.86377 16.1496 0.86377C17.6785 0.86377 20.2332 1.45094 22.6373 2.10459C25.0968 2.76931 27.5762 3.5559 29.0342 4.03228C29.6437 4.23359 30.1842 4.60276 30.5933 5.09739C31.0025 5.59203 31.2639 6.19206 31.3474 6.82855C32.668 16.7484 29.6036 24.1003 25.8856 28.9638C24.309 31.0444 22.429 32.8765 20.3086 34.399C19.5754 34.9259 18.7985 35.3892 17.9865 35.7839C17.3661 36.0764 16.6991 36.3157 16.1496 36.3157C15.6001 36.3157 14.9354 36.0764 14.3128 35.7839C13.5007 35.3892 12.7239 34.9259 11.9907 34.399C9.87027 32.8765 7.99033 31.0443 6.41364 28.9638C2.69563 24.1003 -0.368747 16.7484 0.951836 6.82855C1.03534 6.19206 1.2967 5.59203 1.70589 5.09739C2.11508 4.60276 2.6555 4.23359 3.26507 4.03228C5.38153 3.33833 7.51444 2.69558 9.66192 2.10459Z"/>
</mask>
<path d="M10.2513 4.3868C8.14101 4.9684 6.04505 5.60081 3.96525 6.28348C3.77533 6.345 3.60652 6.45862 3.47803 6.61139C3.34953 6.76417 3.26654 6.94997 3.23848 7.14762C2.01096 16.3585 4.84711 23.0788 8.23055 27.5059C9.66306 29.399 11.3712 31.0667 13.298 32.4536C14.0646 32.9943 14.7426 33.3842 15.2766 33.6346C15.5425 33.7609 15.7596 33.8451 15.9258 33.8961C15.9985 33.9216 16.0734 33.9401 16.1496 33.9515C16.2249 33.9392 16.299 33.9207 16.3712 33.8961C16.5396 33.8451 16.7567 33.7609 17.0226 33.6346C17.5544 33.3842 18.2346 32.992 19.0013 32.4536C20.9281 31.0667 22.6362 29.399 24.0687 27.5059C27.4521 23.081 30.2883 16.3585 29.0608 7.14762C29.033 6.94988 28.95 6.76396 28.8215 6.61114C28.693 6.45832 28.524 6.34477 28.334 6.28348C26.8915 5.81152 24.4564 5.04266 22.0479 4.38902C19.5885 3.72208 17.3262 3.22797 16.1496 3.22797C14.9753 3.22797 12.7108 3.72208 10.2513 4.38902V4.3868ZM9.66192 2.10459C12.066 1.45094 14.6208 0.86377 16.1496 0.86377C17.6785 0.86377 20.2332 1.45094 22.6373 2.10459C25.0968 2.76931 27.5762 3.5559 29.0342 4.03228C29.6437 4.23359 30.1842 4.60276 30.5933 5.09739C31.0025 5.59203 31.2639 6.19206 31.3474 6.82855C32.668 16.7484 29.6036 24.1003 25.8856 28.9638C24.309 31.0444 22.429 32.8765 20.3086 34.399C19.5754 34.9259 18.7985 35.3892 17.9865 35.7839C17.3661 36.0764 16.6991 36.3157 16.1496 36.3157C15.6001 36.3157 14.9354 36.0764 14.3128 35.7839C13.5007 35.3892 12.7239 34.9259 11.9907 34.399C9.87027 32.8765 7.99033 31.0443 6.41364 28.9638C2.69563 24.1003 -0.368747 16.7484 0.951836 6.82855C1.03534 6.19206 1.2967 5.59203 1.70589 5.09739C2.11508 4.60276 2.6555 4.23359 3.26507 4.03228C5.38153 3.33833 7.51444 2.69558 9.66192 2.10459Z" fill="#FF4602" style="fill:#FF4602;fill:color(display-p3 1.0000 0.2745 0.0078);fill-opacity:1;"/>
<path d="M10.2513 4.3868H16.0541V-3.23162L8.70954 -1.20746L10.2513 4.3868ZM3.96525 6.28348L5.75347 11.8039L5.76422 11.8004L5.77496 11.7969L3.96525 6.28348ZM3.23848 7.14762L-2.50676 6.33219L-2.51023 6.35661L-2.51349 6.38106L3.23848 7.14762ZM8.23055 27.5059L12.8579 24.0044L12.8495 23.9933L12.8411 23.9822L8.23055 27.5059ZM13.298 32.4536L9.90801 37.1633L9.93079 37.1797L9.95372 37.1959L13.298 32.4536ZM15.2766 33.6346L17.7664 28.3931L17.7532 28.3868L17.7401 28.3807L15.2766 33.6346ZM15.9258 33.8961L17.8466 28.4204L17.7376 28.3821L17.6272 28.3483L15.9258 33.8961ZM16.1496 33.9515L15.2944 39.6909L16.1883 39.8241L17.0803 39.6792L16.1496 33.9515ZM16.3712 33.8961L14.6904 28.342L14.5931 28.3714L14.497 28.4042L16.3712 33.8961ZM17.0226 33.6346L14.5507 28.3846L14.5418 28.3888L14.5329 28.3931L17.0226 33.6346ZM19.0013 32.4536L22.3363 37.2023L22.3639 37.1829L22.3913 37.1632L19.0013 32.4536ZM24.0687 27.5059L19.459 23.9811L19.4502 23.9927L19.4414 24.0043L24.0687 27.5059ZM29.0608 7.14762L34.8127 6.38106L34.81 6.36035L34.8071 6.33967L29.0608 7.14762ZM28.334 6.28348L26.5295 11.7986L26.5412 11.8024L26.553 11.8062L28.334 6.28348ZM22.0479 4.38902L23.5678 -1.21124L23.5666 -1.21154L22.0479 4.38902ZM10.2513 4.38902H4.44849V11.975L11.77 9.98958L10.2513 4.38902ZM22.6373 2.10459L21.1149 7.70414L21.1233 7.70642L22.6373 2.10459ZM29.0342 4.03228L30.8538 -1.47785L30.8451 -1.48072L30.8365 -1.48356L29.0342 4.03228ZM31.3474 6.82855L25.5939 7.58339L25.5953 7.59429L31.3474 6.82855ZM25.8856 28.9638L21.2755 25.4396L21.2681 25.4493L21.2607 25.4591L25.8856 28.9638ZM20.3086 34.399L16.9241 29.6854L16.9224 29.6866L20.3086 34.399ZM17.9865 35.7839L20.4609 41.0327L20.4921 41.018L20.5232 41.0029L17.9865 35.7839ZM14.3128 35.7839L11.7761 41.0029L11.8107 41.0197L11.8455 41.0361L14.3128 35.7839ZM11.9907 34.399L15.3769 29.6867L15.3753 29.6855L11.9907 34.399ZM6.41364 28.9638L11.0384 25.459L11.0311 25.4493L11.0237 25.4396L6.41364 28.9638ZM0.951836 6.82855L6.70392 7.5943L6.70536 7.58339L0.951836 6.82855ZM3.26507 4.03228L1.45713 -1.48172L1.44542 -1.47785L3.26507 4.03228ZM8.70954 -1.20746C6.50929 -0.601069 4.32398 0.0582968 2.15553 0.770067L5.77496 11.7969C7.76611 11.1433 9.77273 10.5379 11.7931 9.98106L8.70954 -1.20746ZM2.17702 0.76306C0.953092 1.15953 -0.134888 1.89177 -0.962981 2.87639L7.91903 10.3464C7.34792 11.0255 6.59758 11.5305 5.75347 11.8039L2.17702 0.76306ZM-0.962981 2.87639C-1.79107 3.86101 -2.32597 5.05841 -2.50676 6.33219L8.98373 7.96304C8.85905 8.84153 8.49014 9.66733 7.91903 10.3464L-0.962981 2.87639ZM-2.51349 6.38106C-3.96726 17.2896 -0.585981 25.5261 3.62005 31.0295L12.8411 23.9822C10.2802 20.6315 7.98918 15.4273 8.99045 7.91418L-2.51349 6.38106ZM3.60321 31.0074C5.38552 33.3627 7.51072 35.4378 9.90801 37.1633L16.6879 27.7439C15.2316 26.6957 13.9406 25.4352 12.8579 24.0044L3.60321 31.0074ZM9.95372 37.1959C10.9474 37.8966 11.9194 38.4695 12.8131 38.8886L17.7401 28.3807C17.5658 28.299 17.1818 28.0919 16.6422 27.7114L9.95372 37.1959ZM12.7869 38.8762C13.2399 39.0913 13.725 39.2907 14.2245 39.4439L17.6272 28.3483C17.7186 28.3763 17.7737 28.3978 17.789 28.4039C17.8063 28.4108 17.799 28.4086 17.7664 28.3931L12.7869 38.8762ZM14.005 39.3718C14.4238 39.5187 14.8555 39.6255 15.2944 39.6909L17.0048 28.212C17.2914 28.2547 17.5733 28.3245 17.8466 28.4204L14.005 39.3718ZM17.0803 39.6792C17.4761 39.6149 17.8658 39.5174 18.2454 39.3879L14.497 28.4042C14.7322 28.324 14.9737 28.2636 15.219 28.2238L17.0803 39.6792ZM18.052 39.4501C18.5674 39.2942 19.0605 39.0908 19.5124 38.8762L14.5329 28.3931C14.5001 28.4086 14.4944 28.4101 14.5147 28.402C14.533 28.3948 14.593 28.3715 14.6904 28.342L18.052 39.4501ZM19.4945 38.8846C20.3822 38.4667 21.3509 37.8944 22.3363 37.2023L15.6662 27.7049C15.1184 28.0897 14.7266 28.3018 14.5507 28.3846L19.4945 38.8846ZM22.3913 37.1632C24.7885 35.4377 26.9137 33.3627 28.696 31.0074L19.4414 24.0043C18.3586 25.4352 17.0676 26.6957 15.6113 27.744L22.3913 37.1632ZM28.6783 31.0306C32.8857 25.5283 36.2664 17.289 34.8127 6.38106L23.3088 7.91418C24.3101 15.4279 22.0186 20.6338 19.459 23.9811L28.6783 31.0306ZM34.8071 6.33967C34.6276 5.06309 34.0923 3.86279 33.2625 2.87614L24.3805 10.3461C23.8078 9.66513 23.4383 8.83667 23.3145 7.95556L34.8071 6.33967ZM33.2625 2.87614C32.4327 1.88949 31.3419 1.15641 30.115 0.760737L26.553 11.8062C25.7061 11.5331 24.9533 11.0271 24.3805 10.3461L33.2625 2.87614ZM30.1385 0.768354C28.6492 0.281089 26.1102 -0.52125 23.5678 -1.21124L20.5281 9.98927C22.8027 10.6066 25.1339 11.342 26.5295 11.7986L30.1385 0.768354ZM23.5666 -1.21154C21.2514 -1.83938 18.2329 -2.57486 16.1496 -2.57486V9.03079C16.1232 9.03079 16.5053 9.05092 17.4642 9.24542C18.3202 9.41903 19.3711 9.67552 20.5292 9.98958L23.5666 -1.21154ZM16.1496 -2.57486C14.0687 -2.57486 11.0485 -1.83954 8.7326 -1.21154L11.77 9.98958C12.9277 9.67565 13.9791 9.41913 14.8356 9.24548C15.7955 9.05083 16.1773 9.03079 16.1496 9.03079V-2.57486ZM16.0541 4.38902V4.3868H4.44849V4.38902H16.0541ZM11.1844 7.70413C13.7201 7.0147 15.5254 6.66659 16.1496 6.66659V-4.93905C13.7161 -4.93905 10.4119 -4.11282 8.13947 -3.49496L11.1844 7.70413ZM16.1496 6.66659C16.7738 6.66659 18.5792 7.0147 21.1149 7.70413L24.1598 -3.49496C21.8873 -4.11282 18.5831 -4.93905 16.1496 -4.93905V6.66659ZM21.1233 7.70642C23.4414 8.33293 25.812 9.08418 27.2319 9.54812L30.8365 -1.48356C29.3404 -1.97238 26.7522 -2.79432 24.1513 -3.49725L21.1233 7.70642ZM27.2145 9.54242C26.7875 9.40139 26.4088 9.14276 26.1222 8.79622L35.0645 1.39857C33.9595 0.0627609 32.5 -0.934221 30.8538 -1.47785L27.2145 9.54242ZM26.1222 8.79622C25.8355 8.44967 25.6524 8.02929 25.5939 7.58339L37.1009 6.07371C36.8754 4.35482 36.1696 2.73438 35.0645 1.39857L26.1222 8.79622ZM25.5953 7.59429C26.69 15.8171 24.1704 21.6528 21.2755 25.4396L30.4957 32.488C35.0368 26.5477 38.646 17.6798 37.0995 6.06281L25.5953 7.59429ZM21.2607 25.4591C20.0347 27.0769 18.5729 28.5015 16.9241 29.6854L23.6931 39.1126C26.2851 37.2515 28.5832 35.0118 30.5105 32.4686L21.2607 25.4591ZM16.9224 29.6866C16.4574 30.0208 15.9648 30.3146 15.4498 30.5649L20.5232 41.0029C21.6322 40.4638 22.6933 39.831 23.6947 39.1114L16.9224 29.6866ZM15.512 30.5351C15.3581 30.6076 15.3024 30.6232 15.3336 30.6137C15.3544 30.6072 15.4289 30.5851 15.5497 30.5633C15.6676 30.542 15.8741 30.5128 16.1496 30.5128V42.1185C18.0673 42.1185 19.7275 41.3784 20.4609 41.0327L15.512 30.5351ZM16.1496 30.5128C16.4254 30.5128 16.6323 30.542 16.751 30.5635C16.8724 30.5855 16.9472 30.6077 16.9679 30.6141C16.9982 30.6234 16.9406 30.6071 16.78 30.5317L11.8455 41.0361C12.5695 41.3762 14.2303 42.1185 16.1496 42.1185V30.5128ZM16.8494 30.5648C16.3344 30.3146 15.8418 30.0208 15.3769 29.6867L8.60446 39.1114C9.60593 39.831 10.667 40.4638 11.7761 41.0029L16.8494 30.5648ZM15.3753 29.6855C13.7264 28.5015 12.2645 27.0768 11.0384 25.459L1.78885 32.4687C3.71615 35.0118 6.01413 37.2514 8.60606 39.1126L15.3753 29.6855ZM11.0237 25.4396C8.12883 21.6528 5.60925 15.8171 6.70391 7.59429L-4.80024 6.06281C-6.34675 17.6798 -2.73758 26.5477 1.80359 32.488L11.0237 25.4396ZM6.70536 7.58339C6.64685 8.02931 6.46375 8.44968 6.17707 8.79622L-2.76529 1.39857C-3.87034 2.73437 -4.57617 4.3548 -4.80168 6.07371L6.70536 7.58339ZM6.17707 8.79622C5.8904 9.14275 5.51179 9.40139 5.08473 9.54242L1.44542 -1.47785C-0.200785 -0.934217 -1.66024 0.0627695 -2.76529 1.39857L6.17707 8.79622ZM5.07301 9.54627C7.10073 8.88142 9.14419 8.26562 11.2016 7.69941L8.12221 -3.49024C5.88468 -2.87446 3.66234 -2.20476 1.45713 -1.48171L5.07301 9.54627Z" fill="#FF4602" style="fill:#FF4602;fill:color(display-p3 1.0000 0.2745 0.0078);fill-opacity:1;" mask="url(#path-1-inside-1_493_1723)"/>
<path d="M10.8037 20.1762L13.3448 22.7173L20.9682 15.094" stroke="#FF4602" style="stroke:#FF4602;stroke:color(display-p3 1.0000 0.2745 0.0078);stroke-opacity:1;" stroke-width="2.03289" stroke-linecap="round" stroke-linejoin="round"/>
</svg>
