<svg width="32" height="36" viewBox="0 0 32 36" fill="none" xmlns="http://www.w3.org/2000/svg">
<mask id="path-1-inside-1_493_1417" fill="white">
<path d="M9.95663 3.53744C7.84633 4.11903 5.75037 4.75144 3.67057 5.43411C3.48066 5.49563 3.31184 5.60925 3.18335 5.76203C3.05486 5.91481 2.97186 6.1006 2.94381 6.29825C1.71628 15.5091 4.55243 22.2294 7.93587 26.6565C9.36839 28.5496 11.0765 30.2174 13.0033 31.6043C13.7699 32.1449 14.4479 32.5349 14.9819 32.7852C15.2478 32.9115 15.465 32.9957 15.6312 33.0467C15.7038 33.0722 15.7788 33.0907 15.8549 33.1021C15.9302 33.0899 16.0043 33.0713 16.0765 33.0467C16.2449 32.9957 16.4621 32.9115 16.7279 32.7852C17.2597 32.5349 17.94 32.1427 18.7066 31.6043C20.6334 30.2174 22.3415 28.5496 23.774 26.6565C27.1574 22.2317 29.9936 15.5091 28.7661 6.29825C28.7383 6.10051 28.6554 5.9146 28.5268 5.76177C28.3983 5.60895 28.2294 5.4954 28.0393 5.43411C26.5969 4.96216 24.1618 4.1933 21.7533 3.53965C19.2938 2.87271 17.0315 2.3786 15.8549 2.3786C14.6806 2.3786 12.4161 2.87271 9.95663 3.53965V3.53744ZM9.36724 1.25522C11.7713 0.601576 14.3261 0.0144043 15.8549 0.0144043C17.3838 0.0144043 19.9386 0.601576 22.3426 1.25522C24.8021 1.91994 27.2815 2.70653 28.7395 3.18292C29.3491 3.38422 29.8895 3.75339 30.2987 4.24803C30.7079 4.74266 30.9692 5.34269 31.0527 5.97918C32.3733 15.8991 29.3089 23.2509 25.5909 28.1145C24.0143 30.195 22.1343 32.0271 20.0139 33.5497C19.2807 34.0765 18.5038 34.5398 17.6918 34.9345C17.0714 35.227 16.4044 35.4663 15.8549 35.4663C15.3054 35.4663 14.6407 35.227 14.0181 34.9345C13.2061 34.5398 12.4292 34.0765 11.696 33.5497C9.57559 32.0271 7.69565 30.195 6.11897 28.1145C2.40095 23.2509 -0.663425 15.8991 0.657158 5.97918C0.740664 5.34269 1.00202 4.74266 1.41121 4.24803C1.8204 3.75339 2.36082 3.38422 2.97039 3.18292C5.08685 2.48897 7.21976 1.84621 9.36724 1.25522Z"/>
</mask>
<path d="M9.95663 3.53744C7.84633 4.11903 5.75037 4.75144 3.67057 5.43411C3.48066 5.49563 3.31184 5.60925 3.18335 5.76203C3.05486 5.91481 2.97186 6.1006 2.94381 6.29825C1.71628 15.5091 4.55243 22.2294 7.93587 26.6565C9.36839 28.5496 11.0765 30.2174 13.0033 31.6043C13.7699 32.1449 14.4479 32.5349 14.9819 32.7852C15.2478 32.9115 15.465 32.9957 15.6312 33.0467C15.7038 33.0722 15.7788 33.0907 15.8549 33.1021C15.9302 33.0899 16.0043 33.0713 16.0765 33.0467C16.2449 32.9957 16.4621 32.9115 16.7279 32.7852C17.2597 32.5349 17.94 32.1427 18.7066 31.6043C20.6334 30.2174 22.3415 28.5496 23.774 26.6565C27.1574 22.2317 29.9936 15.5091 28.7661 6.29825C28.7383 6.10051 28.6554 5.9146 28.5268 5.76177C28.3983 5.60895 28.2294 5.4954 28.0393 5.43411C26.5969 4.96216 24.1618 4.1933 21.7533 3.53965C19.2938 2.87271 17.0315 2.3786 15.8549 2.3786C14.6806 2.3786 12.4161 2.87271 9.95663 3.53965V3.53744ZM9.36724 1.25522C11.7713 0.601576 14.3261 0.0144043 15.8549 0.0144043C17.3838 0.0144043 19.9386 0.601576 22.3426 1.25522C24.8021 1.91994 27.2815 2.70653 28.7395 3.18292C29.3491 3.38422 29.8895 3.75339 30.2987 4.24803C30.7079 4.74266 30.9692 5.34269 31.0527 5.97918C32.3733 15.8991 29.3089 23.2509 25.5909 28.1145C24.0143 30.195 22.1343 32.0271 20.0139 33.5497C19.2807 34.0765 18.5038 34.5398 17.6918 34.9345C17.0714 35.227 16.4044 35.4663 15.8549 35.4663C15.3054 35.4663 14.6407 35.227 14.0181 34.9345C13.2061 34.5398 12.4292 34.0765 11.696 33.5497C9.57559 32.0271 7.69565 30.195 6.11897 28.1145C2.40095 23.2509 -0.663425 15.8991 0.657158 5.97918C0.740664 5.34269 1.00202 4.74266 1.41121 4.24803C1.8204 3.75339 2.36082 3.38422 2.97039 3.18292C5.08685 2.48897 7.21976 1.84621 9.36724 1.25522Z" fill="#EEA10D" style="fill:#EEA10D;fill:color(display-p3 0.9321 0.6329 0.0522);fill-opacity:1;"/>
<path d="M9.95663 3.53744H15.7595V-4.08098L8.41486 -2.05682L9.95663 3.53744ZM3.67057 5.43411L5.4588 10.9545L5.46955 10.951L5.48028 10.9475L3.67057 5.43411ZM2.94381 6.29825L-2.80144 5.48283L-2.80491 5.50724L-2.80816 5.53169L2.94381 6.29825ZM7.93587 26.6565L12.5632 23.155L12.5548 23.1439L12.5464 23.1329L7.93587 26.6565ZM13.0033 31.6043L9.61333 36.3139L9.63611 36.3303L9.65904 36.3465L13.0033 31.6043ZM14.9819 32.7852L17.4717 27.5437L17.4586 27.5375L17.4454 27.5313L14.9819 32.7852ZM15.6312 33.0467L17.552 27.571L17.4429 27.5328L17.3325 27.4989L15.6312 33.0467ZM15.8549 33.1021L14.9997 38.8416L15.8936 38.9747L16.7856 38.8298L15.8549 33.1021ZM16.0765 33.0467L14.3957 27.4926L14.2984 27.5221L14.2023 27.5549L16.0765 33.0467ZM16.7279 32.7852L14.2561 27.5352L14.2471 27.5394L14.2382 27.5437L16.7279 32.7852ZM18.7066 31.6043L22.0417 36.3529L22.0693 36.3336L22.0966 36.3139L18.7066 31.6043ZM23.774 26.6565L19.1644 23.1317L19.1555 23.1433L19.1467 23.1549L23.774 26.6565ZM28.7661 6.29825L34.518 5.53169L34.5153 5.51099L34.5124 5.49031L28.7661 6.29825ZM28.0393 5.43411L26.2348 10.9492L26.2465 10.9531L26.2583 10.9569L28.0393 5.43411ZM21.7533 3.53965L23.2731 -2.0606L23.272 -2.06091L21.7533 3.53965ZM9.95663 3.53965H4.15381V11.1256L11.4753 9.14021L9.95663 3.53965ZM22.3426 1.25522L20.8202 6.85477L20.8286 6.85705L22.3426 1.25522ZM28.7395 3.18292L30.5591 -2.32722L30.5505 -2.33009L30.5418 -2.33293L28.7395 3.18292ZM31.0527 5.97918L25.2992 6.73402L25.3006 6.74493L31.0527 5.97918ZM25.5909 28.1145L20.9809 24.5902L20.9734 24.6L20.966 24.6097L25.5909 28.1145ZM20.0139 33.5497L16.6294 28.8361L16.6277 28.8373L20.0139 33.5497ZM17.6918 34.9345L20.1662 40.1833L20.1974 40.1686L20.2285 40.1535L17.6918 34.9345ZM14.0181 34.9345L11.4815 40.1536L11.5161 40.1704L11.5509 40.1867L14.0181 34.9345ZM11.696 33.5497L15.0822 28.8373L15.0806 28.8362L11.696 33.5497ZM6.11897 28.1145L10.7438 24.6096L10.7364 24.5999L10.729 24.5902L6.11897 28.1145ZM0.657158 5.97918L6.40925 6.74493L6.41068 6.73402L0.657158 5.97918ZM2.97039 3.18292L1.16245 -2.33109L1.15074 -2.32722L2.97039 3.18292ZM8.41486 -2.05682C6.21461 -1.45043 4.02931 -0.791068 1.86085 -0.0792979L5.48028 10.9475C7.47143 10.294 9.47806 9.6885 11.4984 9.13169L8.41486 -2.05682ZM1.88234 -0.0863051C0.658415 0.310161 -0.429566 1.04241 -1.25766 2.02703L7.62435 9.49703C7.05324 10.1761 6.3029 10.6811 5.4588 10.9545L1.88234 -0.0863051ZM-1.25766 2.02703C-2.08575 3.01165 -2.62065 4.20905 -2.80144 5.48283L8.68905 7.11368C8.56437 7.99216 8.19546 8.81797 7.62435 9.49703L-1.25766 2.02703ZM-2.80816 5.53169C-4.26194 16.4402 -0.880659 24.6768 3.32537 30.1801L12.5464 23.1329C9.98553 19.7821 7.69451 14.5779 8.69577 7.06481L-2.80816 5.53169ZM3.30853 30.158C5.09085 32.5134 7.21604 34.5884 9.61333 36.3139L16.3932 26.8946C14.9369 25.8464 13.6459 24.5858 12.5632 23.155L3.30853 30.158ZM9.65904 36.3465C10.6528 37.0473 11.6247 37.6201 12.5185 38.0392L17.4454 27.5313C17.2712 27.4496 16.8871 27.2425 16.3475 26.862L9.65904 36.3465ZM12.4922 38.0268C12.9452 38.242 13.4303 38.4413 13.9298 38.5945L17.3325 27.4989C17.4239 27.5269 17.479 27.5484 17.4943 27.5545C17.5117 27.5615 17.5043 27.5592 17.4717 27.5437L12.4922 38.0268ZM13.7103 38.5224C14.1291 38.6693 14.5608 38.7762 14.9997 38.8416L16.7101 27.3626C16.9967 27.4053 17.2786 27.4751 17.552 27.571L13.7103 38.5224ZM16.7856 38.8298C17.1814 38.7655 17.5712 38.6681 17.9507 38.5385L14.2023 27.5549C14.4375 27.4746 14.679 27.4142 14.9243 27.3744L16.7856 38.8298ZM17.7573 38.6008C18.2727 38.4448 18.7658 38.2415 19.2177 38.0268L14.2382 27.5437C14.2054 27.5593 14.1998 27.5607 14.22 27.5527C14.2383 27.5454 14.2983 27.5221 14.3957 27.4926L17.7573 38.6008ZM19.1998 38.0353C20.0875 37.6173 21.0562 37.0451 22.0417 36.3529L15.3715 26.8556C14.8237 27.2403 14.4319 27.4524 14.2561 27.5352L19.1998 38.0353ZM22.0966 36.3139C24.4938 34.5883 26.619 32.5134 28.4013 30.1581L19.1467 23.1549C18.064 24.5858 16.7729 25.8464 15.3166 26.8946L22.0966 36.3139ZM28.3837 30.1813C32.591 24.6789 35.9717 16.4396 34.518 5.53169L23.0141 7.06481C24.0155 14.5786 21.7239 19.7844 19.1644 23.1317L28.3837 30.1813ZM34.5124 5.49031C34.3329 4.21372 33.7976 3.01342 32.9678 2.02677L24.0858 9.49677C23.5131 8.81577 23.1437 7.9873 23.0198 7.1062L34.5124 5.49031ZM32.9678 2.02677C32.1381 1.04013 31.0473 0.307042 29.8204 -0.0886281L26.2583 10.9569C25.4114 10.6838 24.6586 10.1778 24.0858 9.49677L32.9678 2.02677ZM29.8438 -0.0810112C28.3546 -0.568276 25.8155 -1.37062 23.2731 -2.0606L20.2334 9.1399C22.508 9.75721 24.8392 10.4926 26.2348 10.9492L29.8438 -0.0810112ZM23.272 -2.06091C20.9567 -2.68874 17.9382 -3.42422 15.8549 -3.42422V8.18143C15.8285 8.18143 16.2106 8.20156 17.1695 8.39605C18.0255 8.56966 19.0764 8.82615 20.2345 9.14021L23.272 -2.06091ZM15.8549 -3.42422C13.7741 -3.42422 10.7538 -2.6889 8.43792 -2.06091L11.4753 9.14021C12.633 8.82628 13.6845 8.56977 14.5409 8.39611C15.5008 8.20147 15.8826 8.18143 15.8549 8.18143V-3.42422ZM15.7595 3.53965V3.53744H4.15381V3.53965H15.7595ZM10.8897 6.85476C13.4254 6.16534 15.2307 5.81723 15.8549 5.81723V-5.78842C13.4214 -5.78842 10.1173 -4.96219 7.84479 -4.34432L10.8897 6.85476ZM15.8549 5.81723C16.4792 5.81723 18.2845 6.16534 20.8202 6.85476L23.8651 -4.34432C21.5926 -4.96219 18.2884 -5.78842 15.8549 -5.78842V5.81723ZM20.8286 6.85705C23.1467 7.48357 25.5173 8.23481 26.9372 8.69876L30.5418 -2.33293C29.0458 -2.82175 26.4575 -3.64368 23.8566 -4.34661L20.8286 6.85705ZM26.9198 8.69305C26.4928 8.55203 26.1142 8.29339 25.8275 7.94685L34.7699 0.549205C33.6648 -0.786604 32.2053 -1.78359 30.5591 -2.32722L26.9198 8.69305ZM25.8275 7.94685C25.5408 7.6003 25.3577 7.17993 25.2992 6.73402L36.8062 5.22435C36.5807 3.50545 35.8749 1.88502 34.7699 0.549205L25.8275 7.94685ZM25.3006 6.74493C26.3953 14.9677 23.8757 20.8034 20.9809 24.5902L30.201 31.6387C34.7421 25.6984 38.3513 16.8304 36.8048 5.21344L25.3006 6.74493ZM20.966 24.6097C19.7401 26.2275 18.2782 27.6522 16.6294 28.8361L23.3984 38.2633C25.9904 36.4021 28.2885 34.1625 30.2158 31.6192L20.966 24.6097ZM16.6277 28.8373C16.1628 29.1714 15.6701 29.4652 15.1551 29.7155L20.2285 40.1535C21.3376 39.6144 22.3986 38.9817 23.4 38.2621L16.6277 28.8373ZM15.2174 29.6857C15.0634 29.7583 15.0078 29.7739 15.0389 29.7643C15.0598 29.7579 15.1342 29.7357 15.255 29.7139C15.3729 29.6926 15.5794 29.6635 15.8549 29.6635V41.2691C17.7726 41.2691 19.4328 40.5291 20.1662 40.1833L15.2174 29.6857ZM15.8549 29.6635C16.1307 29.6635 16.3377 29.6927 16.4563 29.7141C16.5777 29.7361 16.6525 29.7583 16.6732 29.7647C16.7036 29.7741 16.646 29.7578 16.4853 29.6823L11.5509 40.1867C12.2749 40.5268 13.9356 41.2691 15.8549 41.2691V29.6635ZM16.5547 29.7155C16.0398 29.4652 15.5471 29.1714 15.0822 28.8373L8.30978 38.262C9.31125 38.9817 10.3723 39.6145 11.4815 40.1536L16.5547 29.7155ZM15.0806 28.8362C13.4317 27.6522 11.9698 26.2274 10.7438 24.6096L1.49417 31.6193C3.42147 34.1625 5.71946 36.402 8.31139 38.2632L15.0806 28.8362ZM10.729 24.5902C7.83415 20.8034 5.31457 14.9677 6.40924 6.74493L-5.09492 5.21344C-6.64142 16.8304 -3.03226 25.6984 1.50891 31.6387L10.729 24.5902ZM6.41068 6.73402C6.35217 7.17994 6.16907 7.60032 5.8824 7.94685L-3.05997 0.549205C-4.16502 1.88501 -4.87085 3.50544 -5.09636 5.22435L6.41068 6.73402ZM5.8824 7.94685C5.59572 8.29338 5.21711 8.55202 4.79005 8.69305L1.15074 -2.32722C-0.495462 -1.78358 -1.95492 -0.786596 -3.05997 0.549205L5.8824 7.94685ZM4.77834 8.69691C6.80605 8.03206 8.84952 7.41626 10.907 6.85004L7.82754 -4.3396C5.59 -3.72383 3.36766 -3.05412 1.16245 -2.33107L4.77834 8.69691Z" fill="#EEA10D" style="fill:#EEA10D;fill:color(display-p3 0.9321 0.6329 0.0522);fill-opacity:1;" mask="url(#path-1-inside-1_493_1417)"/>
<path d="M10.509 19.3269L13.0501 21.868L20.6735 14.2446" stroke="#EEA10D" style="stroke:#EEA10D;stroke:color(display-p3 0.9321 0.6329 0.0522);stroke-opacity:1;" stroke-width="2.03289" stroke-linecap="round" stroke-linejoin="round"/>
</svg>
