<svg width="37" height="37" viewBox="0 0 37 37" fill="none" xmlns="http://www.w3.org/2000/svg">
<g clip-path="url(#clip0_501_949)">
<g filter="url(#filter0_d_501_949)">
<path d="M17.595 2.27234L5.96199 5.96537L4.66943 8.73514V16.3059L9.47037 28.3082L18.703 35.325L26.2737 30.1547L32.1825 19.2603L32.7365 7.25793L31.4439 5.41142L17.595 2.27234Z" fill="#8A8894" fill-opacity="0.35" style="fill:#8A8894;fill:color(display-p3 0.5412 0.5333 0.5804);fill-opacity:0.35;" shape-rendering="crispEdges"/>
</g>
<mask id="path-2-inside-1_501_949" fill="white">
<path d="M12.9568 4.46212C10.8465 5.04371 8.75049 5.67612 6.67069 6.35879C6.48078 6.42031 6.31196 6.53393 6.18347 6.68671C6.05498 6.83949 5.97198 7.02529 5.94393 7.22293C4.71641 16.4338 7.55256 23.1541 10.936 27.5812C12.3685 29.4743 14.0766 31.1421 16.0034 32.5289C16.77 33.0696 17.4481 33.4595 17.9821 33.7099C18.2479 33.8362 18.4651 33.9204 18.6313 33.9714C18.704 33.9969 18.7789 34.0154 18.8551 34.0268C18.9303 34.0145 19.0045 33.996 19.0766 33.9714C19.245 33.9204 19.4622 33.8362 19.7281 33.7099C20.2598 33.4595 20.9401 33.0674 21.7067 32.5289C23.6335 31.142 25.3416 29.4743 26.7741 27.5812C30.1576 23.1563 32.9937 16.4338 31.7662 7.22293C31.7384 7.0252 31.6555 6.83928 31.527 6.68646C31.3984 6.53363 31.2295 6.42008 31.0394 6.35879C29.597 5.88684 27.1619 5.11798 24.7534 4.46433C22.2939 3.7974 20.0316 3.30328 18.8551 3.30328C17.6807 3.30328 15.4162 3.7974 12.9568 4.46433V4.46212ZM12.3674 2.1799C14.7714 1.52626 17.3262 0.939087 18.8551 0.939087C20.3839 0.939087 22.9387 1.52626 25.3428 2.1799C27.8022 2.84463 30.2817 3.63121 31.7396 4.1076C32.3492 4.3089 32.8896 4.67808 33.2988 5.17271C33.708 5.66734 33.9693 6.26737 34.0528 6.90387C35.3734 16.8237 32.3091 24.1756 28.591 29.0391C27.0144 31.1197 25.1345 32.9518 23.014 34.4744C22.2808 35.0012 21.5039 35.4645 20.6919 35.8592C20.0715 36.1517 19.4046 36.391 18.8551 36.391C18.3056 36.391 17.6408 36.1517 17.0182 35.8592C16.2062 35.4645 15.4293 35.0012 14.6961 34.4744C12.5757 32.9518 10.6958 31.1196 9.11909 29.0391C5.40107 24.1756 2.3367 16.8237 3.65728 6.90387C3.74079 6.26737 4.00215 5.66734 4.41134 5.17271C4.82053 4.67808 5.36095 4.3089 5.97052 4.1076C8.08698 3.41365 10.2199 2.7709 12.3674 2.1799Z"/>
</mask>
<path d="M12.9568 4.46212C10.8465 5.04371 8.75049 5.67612 6.67069 6.35879C6.48078 6.42031 6.31196 6.53393 6.18347 6.68671C6.05498 6.83949 5.97198 7.02529 5.94393 7.22293C4.71641 16.4338 7.55256 23.1541 10.936 27.5812C12.3685 29.4743 14.0766 31.1421 16.0034 32.5289C16.77 33.0696 17.4481 33.4595 17.9821 33.7099C18.2479 33.8362 18.4651 33.9204 18.6313 33.9714C18.704 33.9969 18.7789 34.0154 18.8551 34.0268C18.9303 34.0145 19.0045 33.996 19.0766 33.9714C19.245 33.9204 19.4622 33.8362 19.7281 33.7099C20.2598 33.4595 20.9401 33.0674 21.7067 32.5289C23.6335 31.142 25.3416 29.4743 26.7741 27.5812C30.1576 23.1563 32.9937 16.4338 31.7662 7.22293C31.7384 7.0252 31.6555 6.83928 31.527 6.68646C31.3984 6.53363 31.2295 6.42008 31.0394 6.35879C29.597 5.88684 27.1619 5.11798 24.7534 4.46433C22.2939 3.7974 20.0316 3.30328 18.8551 3.30328C17.6807 3.30328 15.4162 3.7974 12.9568 4.46433V4.46212ZM12.3674 2.1799C14.7714 1.52626 17.3262 0.939087 18.8551 0.939087C20.3839 0.939087 22.9387 1.52626 25.3428 2.1799C27.8022 2.84463 30.2817 3.63121 31.7396 4.1076C32.3492 4.3089 32.8896 4.67808 33.2988 5.17271C33.708 5.66734 33.9693 6.26737 34.0528 6.90387C35.3734 16.8237 32.3091 24.1756 28.591 29.0391C27.0144 31.1197 25.1345 32.9518 23.014 34.4744C22.2808 35.0012 21.5039 35.4645 20.6919 35.8592C20.0715 36.1517 19.4046 36.391 18.8551 36.391C18.3056 36.391 17.6408 36.1517 17.0182 35.8592C16.2062 35.4645 15.4293 35.0012 14.6961 34.4744C12.5757 32.9518 10.6958 31.1196 9.11909 29.0391C5.40107 24.1756 2.3367 16.8237 3.65728 6.90387C3.74079 6.26737 4.00215 5.66734 4.41134 5.17271C4.82053 4.67808 5.36095 4.3089 5.97052 4.1076C8.08698 3.41365 10.2199 2.7709 12.3674 2.1799Z" fill="#8A8894" style="fill:#8A8894;fill:color(display-p3 0.5409 0.5333 0.5792);fill-opacity:1;"/>
<path d="M12.9568 4.46212H18.7596V-3.1563L11.415 -1.13214L12.9568 4.46212ZM6.67069 6.35879L8.45892 11.8792L8.46967 11.8757L8.48041 11.8722L6.67069 6.35879ZM5.94393 7.22293L0.198682 6.40751L0.195217 6.43193L0.191959 6.45637L5.94393 7.22293ZM10.936 27.5812L15.5633 24.0797L15.5549 24.0686L15.5465 24.0575L10.936 27.5812ZM16.0034 32.5289L12.6135 37.2386L12.6362 37.255L12.6592 37.2712L16.0034 32.5289ZM17.9821 33.7099L20.4718 28.4684L20.4587 28.4621L20.4455 28.456L17.9821 33.7099ZM18.6313 33.9714L20.5521 28.4957L20.4431 28.4574L20.3326 28.4236L18.6313 33.9714ZM18.8551 34.0268L17.9999 39.7662L18.8937 39.8994L19.7857 39.7545L18.8551 34.0268ZM19.0766 33.9714L17.3958 28.4173L17.2986 28.4468L17.2024 28.4796L19.0766 33.9714ZM19.7281 33.7099L17.2562 28.4599L17.2472 28.4641L17.2383 28.4684L19.7281 33.7099ZM21.7067 32.5289L25.0418 37.2776L25.0694 37.2583L25.0967 37.2386L21.7067 32.5289ZM26.7741 27.5812L22.1645 24.0564L22.1556 24.068L22.1468 24.0796L26.7741 27.5812ZM31.7662 7.22293L37.5182 6.45637L37.5154 6.43567L37.5125 6.41499L31.7662 7.22293ZM31.0394 6.35879L29.2349 11.8739L29.2467 11.8778L29.2584 11.8815L31.0394 6.35879ZM24.7534 4.46433L26.2732 -1.13592L26.2721 -1.13623L24.7534 4.46433ZM12.9568 4.46433H7.15393V12.0503L14.4755 10.0649L12.9568 4.46433ZM25.3428 2.1799L23.8203 7.77945L23.8288 7.78174L25.3428 2.1799ZM31.7396 4.1076L33.5593 -1.40254L33.5506 -1.4054L33.5419 -1.40824L31.7396 4.1076ZM34.0528 6.90387L28.2993 7.6587L28.3008 7.66961L34.0528 6.90387ZM28.591 29.0391L23.981 25.5149L23.9736 25.5246L23.9662 25.5344L28.591 29.0391ZM23.014 34.4744L19.6295 29.7608L19.6279 29.762L23.014 34.4744ZM20.6919 35.8592L23.1663 41.108L23.1976 41.0933L23.2286 41.0782L20.6919 35.8592ZM17.0182 35.8592L14.4816 41.0782L14.5162 41.095L14.551 41.1114L17.0182 35.8592ZM14.6961 34.4744L18.0823 29.762L18.0807 29.7608L14.6961 34.4744ZM9.11909 29.0391L13.7439 25.5343L13.7365 25.5246L13.7291 25.5149L9.11909 29.0391ZM3.65728 6.90387L9.40937 7.66961L9.4108 7.6587L3.65728 6.90387ZM5.97052 4.1076L4.16257 -1.4064L4.15086 -1.40254L5.97052 4.1076ZM11.415 -1.13214C9.21473 -0.525752 7.02943 0.133614 4.86098 0.845385L8.48041 11.8722C10.4716 11.2186 12.4782 10.6132 14.4985 10.0564L11.415 -1.13214ZM4.88246 0.838377C3.65854 1.23484 2.57056 1.96709 1.74246 2.95171L10.6245 10.4217C10.0534 11.1008 9.30302 11.6058 8.45892 11.8792L4.88246 0.838377ZM1.74246 2.95171C0.914374 3.93633 0.37947 5.13373 0.198682 6.40751L11.6892 8.03836C11.5645 8.91684 11.1956 9.74265 10.6245 10.4217L1.74246 2.95171ZM0.191959 6.45637C-1.26182 17.3649 2.11946 25.6014 6.3255 31.1048L15.5465 24.0575C12.9857 20.7068 10.6946 15.5026 11.6959 7.98949L0.191959 6.45637ZM6.30866 31.0827C8.09097 33.4381 10.2162 35.5131 12.6135 37.2386L19.3933 27.8193C17.9371 26.771 16.646 25.5105 15.5633 24.0797L6.30866 31.0827ZM12.6592 37.2712C13.6529 37.9719 14.6248 38.5448 15.5186 38.9639L20.4455 28.456C20.2713 28.3743 19.8872 28.1672 19.3476 27.7867L12.6592 37.2712ZM15.4923 38.9515C15.9453 39.1667 16.4304 39.366 16.9299 39.5192L20.3326 28.4236C20.424 28.4516 20.4791 28.4731 20.4944 28.4792C20.5118 28.4862 20.5044 28.4839 20.4718 28.4684L15.4923 38.9515ZM16.7105 39.4471C17.1292 39.594 17.5609 39.7008 17.9999 39.7662L19.7103 28.2873C19.9968 28.33 20.2787 28.3998 20.5521 28.4957L16.7105 39.4471ZM19.7857 39.7545C20.1815 39.6902 20.5713 39.5927 20.9509 39.4632L17.2024 28.4796C17.4376 28.3993 17.6791 28.3389 17.9244 28.2991L19.7857 39.7545ZM20.7575 39.5254C21.2728 39.3695 21.7659 39.1661 22.2178 38.9515L17.2383 28.4684C17.2055 28.4839 17.1999 28.4854 17.2202 28.4773C17.2384 28.4701 17.2984 28.4468 17.3958 28.4173L20.7575 39.5254ZM22.1999 38.9599C23.0876 38.542 24.0563 37.9697 25.0418 37.2776L18.3717 27.7802C17.8238 28.165 17.4321 28.3771 17.2562 28.4599L22.1999 38.9599ZM25.0967 37.2386C27.494 35.513 29.6191 33.4381 31.4014 31.0827L22.1468 24.0796C21.0641 25.5105 19.773 26.771 18.3167 27.8193L25.0967 37.2386ZM31.3838 31.1059C35.5911 25.6036 38.9719 17.3643 37.5182 6.45637L26.0142 7.98949C27.0156 15.5033 24.724 20.7091 22.1645 24.0564L31.3838 31.1059ZM37.5125 6.41499C37.333 5.13841 36.7978 3.93811 35.968 2.95146L27.086 10.4215C26.5132 9.74045 26.1438 8.91198 26.0199 8.03088L37.5125 6.41499ZM35.968 2.95146C35.1382 1.96481 34.0474 1.23173 32.8205 0.836055L29.2584 11.8815C28.4116 11.6084 27.6587 11.1025 27.086 10.4215L35.968 2.95146ZM32.8439 0.843671C31.3547 0.356406 28.8156 -0.445933 26.2732 -1.13592L23.2335 10.0646C25.5081 10.6819 27.8393 11.4173 29.2349 11.8739L32.8439 0.843671ZM26.2721 -1.13623C23.9568 -1.76406 20.9384 -2.49954 18.8551 -2.49954V9.10611C18.8287 9.10611 19.2107 9.12624 20.1697 9.32073C21.0256 9.49435 22.0765 9.75084 23.2347 10.0649L26.2721 -1.13623ZM18.8551 -2.49954C16.7742 -2.49954 13.7539 -1.76422 11.438 -1.13623L14.4755 10.0649C15.6331 9.75097 16.6846 9.49445 17.541 9.3208C18.5009 9.12615 18.8828 9.10611 18.8551 9.10611V-2.49954ZM18.7596 4.46433V4.46212H7.15393V4.46433H18.7596ZM13.8898 7.77945C16.4255 7.09002 18.2308 6.74191 18.8551 6.74191V-4.86374C16.4216 -4.86374 13.1174 -4.0375 10.8449 -3.41964L13.8898 7.77945ZM18.8551 6.74191C19.4793 6.74191 21.2846 7.09002 23.8203 7.77945L26.8652 -3.41964C24.5927 -4.0375 21.2886 -4.86374 18.8551 -4.86374V6.74191ZM23.8288 7.78174C26.1469 8.40825 28.5174 9.15949 29.9373 9.62344L33.5419 -1.40824C32.0459 -1.89706 29.4576 -2.719 26.8568 -3.42193L23.8288 7.78174ZM29.92 9.61774C29.4929 9.47671 29.1143 9.21807 28.8276 8.87153L37.77 1.47389C36.6649 0.138078 35.2055 -0.858903 33.5593 -1.40254L29.92 9.61774ZM28.8276 8.87153C28.5409 8.52499 28.3578 8.10461 28.2993 7.6587L39.8064 6.14903C39.5809 4.43014 38.875 2.8097 37.77 1.47389L28.8276 8.87153ZM28.3008 7.66961C29.3954 15.8924 26.8759 21.7281 23.981 25.5149L33.2011 32.5634C37.7423 26.623 41.3514 17.7551 39.8049 6.13812L28.3008 7.66961ZM23.9662 25.5344C22.7402 27.1522 21.2784 28.5769 19.6295 29.7608L26.3985 39.188C28.9906 37.3268 31.2886 35.0872 33.2159 32.5439L23.9662 25.5344ZM19.6279 29.762C19.1629 30.0961 18.6702 30.3899 18.1552 30.6402L23.2286 41.0782C24.3377 40.5391 25.3987 39.9064 26.4002 39.1868L19.6279 29.762ZM18.2175 30.6104C18.0635 30.683 18.0079 30.6986 18.039 30.689C18.0599 30.6825 18.1343 30.6604 18.2551 30.6386C18.373 30.6173 18.5795 30.5882 18.8551 30.5882V42.1938C20.7728 42.1938 22.4329 41.4538 23.1663 41.108L18.2175 30.6104ZM18.8551 30.5882C19.1308 30.5882 19.3378 30.6174 19.4565 30.6388C19.5779 30.6608 19.6527 30.683 19.6733 30.6894C19.7037 30.6987 19.6461 30.6825 19.4854 30.607L14.551 41.1114C15.275 41.4515 16.9357 42.1938 18.8551 42.1938V30.5882ZM19.5548 30.6402C19.0399 30.3899 18.5473 30.0961 18.0823 29.762L11.3099 39.1867C12.3114 39.9064 13.3725 40.5392 14.4816 41.0782L19.5548 30.6402ZM18.0807 29.7608C16.4318 28.5768 14.97 27.1521 13.7439 25.5343L4.49429 32.544C6.42159 35.0871 8.71958 37.3267 11.3115 39.1879L18.0807 29.7608ZM13.7291 25.5149C10.8343 21.7281 8.3147 15.8924 9.40936 7.66961L-2.0948 6.13812C-3.6413 17.7551 -0.0321331 26.623 4.50903 32.5634L13.7291 25.5149ZM9.4108 7.6587C9.3523 8.10463 9.16919 8.525 8.88252 8.87153L-0.0598469 1.47389C-1.1649 2.80969 -1.87073 4.43012 -2.09624 6.14903L9.4108 7.6587ZM8.88252 8.87153C8.59585 9.21807 8.21723 9.47671 7.79017 9.61774L4.15086 -1.40254C2.50466 -0.8589 1.0452 0.138087 -0.0598469 1.47389L8.88252 8.87153ZM7.77846 9.62159C9.80617 8.95674 11.8496 8.34094 13.9071 7.77473L10.8277 -3.41492C8.59012 -2.79915 6.36778 -2.12944 4.16257 -1.40639L7.77846 9.62159Z" fill="#8A8894" style="fill:#8A8894;fill:color(display-p3 0.5409 0.5333 0.5792);fill-opacity:1;" mask="url(#path-2-inside-1_501_949)"/>
<path d="M13.509 20.2515L16.0501 22.7926L23.6735 15.1693" stroke="#8A8894" style="stroke:#8A8894;stroke:color(display-p3 0.5409 0.5333 0.5792);stroke-opacity:1;" stroke-width="2.03289" stroke-linecap="round" stroke-linejoin="round"/>
</g>
<defs>
<filter id="filter0_d_501_949" x="0.976401" y="0.0565196" width="35.4531" height="40.4387" filterUnits="userSpaceOnUse" color-interpolation-filters="sRGB">
<feFlood flood-opacity="0" result="BackgroundImageFix"/>
<feColorMatrix in="SourceAlpha" type="matrix" values="0 0 0 0 0 0 0 0 0 0 0 0 0 0 0 0 0 0 127 0" result="hardAlpha"/>
<feOffset dy="1.47721"/>
<feGaussianBlur stdDeviation="1.84652"/>
<feComposite in2="hardAlpha" operator="out"/>
<feColorMatrix type="matrix" values="0 0 0 0 0 0 0 0 0 0 0 0 0 0 0 0 0 0 0.25 0"/>
<feBlend mode="normal" in2="BackgroundImageFix" result="effect1_dropShadow_501_949"/>
<feBlend mode="normal" in="SourceGraphic" in2="effect1_dropShadow_501_949" result="shape"/>
</filter>
<clipPath id="clip0_501_949">
<rect width="35.4519" height="35.4519" fill="white" style="fill:white;fill-opacity:1;" transform="translate(0.977173 0.795166)"/>
</clipPath>
</defs>
</svg>
