<svg width="174" height="40" viewBox="0 0 174 40" fill="none" xmlns="http://www.w3.org/2000/svg">
  <g clip-path="url(#clip0_1_2)">
    <path d="M50.2 15.7C49.2 15.7 48.5 15.9 47.9 16.4C47.3 16.9 47 17.5 47 18.3C47 19.1 47.3 19.7 47.9 20.2C48.5 20.7 49.2 20.9 50.2 20.9H58.1V24.1H50.2C48.4 24.1 46.9 23.6 45.7 22.5C44.5 21.4 44 20.1 44 18.3C44 16.5 44.5 15.2 45.7 14.1C46.9 13 48.4 12.5 50.2 12.5H58.1V15.7H50.2Z" fill="white"/>
    <path d="M61 24.1V12.5H64V24.1H61Z" fill="white"/>
    <path d="M79.9 24.1L74.2 18.6V24.1H71.2V12.5H74.2V17.7L79.7 12.5H83.5L76.8 18.8L83.9 24.1H79.9Z" fill="white"/>
    <path d="M96.7 24.1L95.3 21.7H88.5L87.1 24.1H84L90.3 12.5H93.6L99.9 24.1H96.7ZM91.9 15.1L89.6 18.7H94.2L91.9 15.1Z" fill="white"/>
    <path d="M114.4 24.1V16.6L110.6 22.2H109.2L105.4 16.7V24.1H102.4V12.5H105.2L109.9 19.4L114.5 12.5H117.3V24.1H114.4Z" fill="white"/>
    <path d="M126.2 24.1V15.7H121.7V12.5H133.7V15.7H129.2V24.1H126.2Z" fill="white"/>
    <path d="M136.7 24.1V12.5H146.9V15.6H139.7V16.9H146.2V19.8H139.7V21H146.9V24.1H136.7Z" fill="white"/>
    <path d="M159.5 24.1V21.1H152.7V12.5H155.7V18.1H159.5V12.5H162.5V24.1H159.5Z" fill="white"/>
    <path d="M166.5 24.1V12.5H176.7V15.6H169.5V16.9H176V19.8H169.5V21H176.7V24.1H166.5Z" fill="white"/>
    <path d="M155.7 28.1V39.7H152.7V28.1H155.7Z" fill="white"/>
    <path d="M166.5 28.1V31.2H159.5V32.6H166V35.4H159.5V36.7H166.5V39.7H156.5V28.1H166.5Z" fill="white"/>
    <path d="M170.5 39.7V28.1H178.5C180.1 28.1 181.3 28.5 182.2 29.3C183.1 30.1 183.5 31.2 183.5 32.4C183.5 33.6 183.1 34.7 182.2 35.5C181.3 36.3 180.1 36.7 178.5 36.7H173.5V39.7H170.5ZM178.5 33.7C179 33.7 179.3 33.6 179.6 33.3C179.8 33 180 32.7 180 32.4C180 32 179.8 31.7 179.6 31.5C179.3 31.2 179 31.1 178.5 31.1H173.5V33.7H178.5Z" fill="white"/>
    <path d="M18 10C24 10 29.5 12.5 32 14C35 16 36 19 36 19L31 21.5L30.5 18.5C30.5 18.5 27.5 14 18 14C8.5 14 5.5 18.5 5.5 18.5L5 21.5L0 19C0 19 0.999 16 4 14C6.5 12.5 12 10 18 10Z" fill="white"/>
    <path d="M18 7C26 7 32 9 36 11C40 13 40 18 40 18L33 22L32 17C32 17 28 13 18 13C8 13 4 17 4 17L3 22L-4.76837e-07 18C-4.76837e-07 18 0 13 4 11C8 9 10 7 18 7Z" fill="white"/>
    <path d="M28 23L23 24V26C23 26 21 32 18 32C15 32 13 26 13 26V24L8 23C8 23 9 27 10 29C11 31 15 35 18 35C21 35 25 31 26 29C27 27 28 23 28 23Z" fill="white"/>
  </g>
  <defs>
    <clipPath id="clip0_1_2">
      <rect width="183.5" height="40" fill="white"/>
    </clipPath>
  </defs>
</svg> 